<mxfile host="Electron" agent="Mozilla/5.0 (Windows NT 10.0; Win64; x64) AppleWebKit/537.36 (KHTML, like Gecko) draw.io/24.7.8 Chrome/128.0.6613.36 Electron/32.0.1 Safari/537.36" version="24.7.8">
  <diagram name="Page-1" id="58cdce13-f638-feb5-8d6f-7d28b1aa9fa0">
    <mxGraphModel dx="4249" dy="2056" grid="1" gridSize="10" guides="1" tooltips="1" connect="1" arrows="1" fold="1" page="1" pageScale="1" pageWidth="1100" pageHeight="850" background="none" math="0" shadow="0">
      <root>
        <mxCell id="0" />
        <mxCell id="1" parent="0" />
        <mxCell id="scR5IvBx8ftGSUGvlspl-72" value="&lt;font style=&quot;font-size: 16px;&quot;&gt;&lt;b style=&quot;&quot;&gt;&lt;font style=&quot;font-size: 20px;&quot;&gt;PZR Team website network&lt;/font&gt;&lt;/b&gt;&lt;br&gt;&lt;br&gt;&lt;b style=&quot;&quot;&gt;Main domain:&lt;/b&gt;&lt;br style=&quot;&quot;&gt;&lt;span style=&quot;&quot;&gt;pzrteam.hu&lt;/span&gt;&lt;br style=&quot;&quot;&gt;&lt;br style=&quot;&quot;&gt;&lt;b style=&quot;&quot;&gt;subdomain portfolio:&lt;br&gt;&lt;/b&gt;urbex.pzrteam.hu&lt;/font&gt;" style="shape=umlFrame;whiteSpace=wrap;html=1;rounded=1;shadow=0;comic=0;labelBackgroundColor=none;strokeWidth=4;fontFamily=Helvetica;fontSize=12;align=center;width=280;height=240;fillColor=#EA6B66;strokeColor=#EA6B66;swimlaneFillColor=#000000;fillStyle=auto;fontColor=#000000;rotation=0;" parent="1" vertex="1">
          <mxGeometry x="-980" y="-540" width="3600" height="3120" as="geometry" />
        </mxCell>
        <mxCell id="2a3bc250acf0617d-8" value="pzrteam.hu" style="shape=umlFrame;whiteSpace=wrap;html=1;rounded=1;shadow=0;comic=0;labelBackgroundColor=none;strokeWidth=3;fontFamily=Verdana;fontSize=12;align=center;width=130;height=30;fillColor=#EA6B66;strokeColor=#EA6B66;fillStyle=solid;gradientColor=none;swimlaneFillColor=default;fontColor=#000000;" parent="1" vertex="1">
          <mxGeometry x="-450" y="-470" width="2230" height="1680" as="geometry" />
        </mxCell>
        <mxCell id="jzYoZOkXzFZlrtvSk8LI-5" value="Esport" style="shape=umlFrame;whiteSpace=wrap;html=1;rounded=1;shadow=0;comic=0;labelBackgroundColor=none;strokeWidth=5;fontFamily=Verdana;fontSize=12;align=center;width=130;height=30;fillColor=#6d8764;strokeColor=#3A5431;fillStyle=solid;swimlaneFillColor=none;fontColor=#ffffff;" parent="1" vertex="1">
          <mxGeometry x="-405" y="-20" width="2140" height="1190" as="geometry" />
        </mxCell>
        <mxCell id="vBWL9bzFLguuBPXEn6Cb-80" value="Hungarian" style="shape=umlFrame;whiteSpace=wrap;html=1;rounded=1;shadow=0;comic=0;labelBackgroundColor=none;strokeWidth=5;fontFamily=Verdana;fontSize=12;align=center;width=130;height=30;fillColor=#647687;strokeColor=#314354;fillStyle=solid;swimlaneFillColor=none;fontColor=#ffffff;" parent="1" vertex="1">
          <mxGeometry x="590" y="-10" width="610" height="540" as="geometry" />
        </mxCell>
        <mxCell id="vBWL9bzFLguuBPXEn6Cb-78" value="English" style="shape=umlFrame;whiteSpace=wrap;html=1;rounded=1;shadow=0;comic=0;labelBackgroundColor=none;strokeWidth=5;fontFamily=Verdana;fontSize=12;align=center;width=130;height=30;fillColor=#647687;strokeColor=#314354;fillStyle=solid;swimlaneFillColor=none;fontColor=#ffffff;" parent="1" vertex="1">
          <mxGeometry x="-40" y="425" width="605" height="535" as="geometry" />
        </mxCell>
        <mxCell id="vBWL9bzFLguuBPXEn6Cb-65" value="Main" style="shape=umlFrame;whiteSpace=wrap;html=1;rounded=1;shadow=0;comic=0;labelBackgroundColor=none;strokeWidth=5;fontFamily=Verdana;fontSize=12;align=center;width=130;height=30;fillColor=#6d8764;strokeColor=#3A5431;fillStyle=solid;swimlaneFillColor=none;fontColor=#ffffff;" parent="1" vertex="1">
          <mxGeometry x="630" y="-430" width="560" height="350" as="geometry" />
        </mxCell>
        <mxCell id="382b91b5511bd0f7-1" value="Entry" style="ellipse;html=1;shape=startState;fillColor=#FFFFFF;strokeColor=#ff0000;rounded=1;shadow=0;comic=0;labelBackgroundColor=none;fontFamily=Verdana;fontSize=12;fontColor=#000000;align=center;direction=south;" parent="1" vertex="1">
          <mxGeometry x="891.25" y="-730" width="127.5" height="120" as="geometry" />
        </mxCell>
        <mxCell id="382b91b5511bd0f7-6" value="home.html" style="rounded=1;whiteSpace=wrap;html=1;arcSize=24;shadow=0;comic=0;labelBackgroundColor=none;fontFamily=Verdana;fontSize=14;align=center;strokeColor=#10739E;strokeWidth=3;" parent="1" vertex="1">
          <mxGeometry x="865" y="-380" width="180" height="60" as="geometry" />
        </mxCell>
        <mxCell id="3cde6dad864a17aa-13" style="edgeStyle=elbowEdgeStyle;html=1;exitX=0;exitY=0.75;entryX=1;entryY=0.75;labelBackgroundColor=none;endArrow=open;endSize=8;strokeColor=#ff0000;fontFamily=Verdana;fontSize=12;align=left;" parent="1" edge="1">
          <mxGeometry relative="1" as="geometry">
            <mxPoint x="640" y="355" as="targetPoint" />
          </mxGeometry>
        </mxCell>
        <mxCell id="2a3bc250acf0617d-9" style="edgeStyle=orthogonalEdgeStyle;html=1;labelBackgroundColor=none;endArrow=open;endSize=8;strokeColor=#EA6B66;fontFamily=Verdana;fontSize=12;align=left;" parent="1" source="382b91b5511bd0f7-1" target="382b91b5511bd0f7-6" edge="1">
          <mxGeometry relative="1" as="geometry" />
        </mxCell>
        <mxCell id="2a3bc250acf0617d-13" style="edgeStyle=orthogonalEdgeStyle;html=1;exitX=1;exitY=0.5;entryX=0;entryY=0.5;labelBackgroundColor=none;endArrow=open;endSize=8;strokeColor=#ff0000;fontFamily=Verdana;fontSize=12;align=left;" parent="1" edge="1">
          <mxGeometry relative="1" as="geometry">
            <mxPoint x="360" y="340" as="sourcePoint" />
          </mxGeometry>
        </mxCell>
        <mxCell id="2a3bc250acf0617d-15" style="edgeStyle=orthogonalEdgeStyle;html=1;exitX=1;exitY=0.25;entryX=0;entryY=0.25;labelBackgroundColor=none;endArrow=open;endSize=8;strokeColor=#ff0000;fontFamily=Verdana;fontSize=12;align=left;" parent="1" edge="1">
          <mxGeometry relative="1" as="geometry">
            <mxPoint x="640" y="325" as="sourcePoint" />
          </mxGeometry>
        </mxCell>
        <mxCell id="scR5IvBx8ftGSUGvlspl-9" value="" style="endArrow=classic;html=1;rounded=0;entryX=0.5;entryY=0;entryDx=0;entryDy=0;exitX=0;exitY=0.5;exitDx=0;exitDy=0;" parent="1" source="jzYoZOkXzFZlrtvSk8LI-1" target="scR5IvBx8ftGSUGvlspl-46" edge="1">
          <mxGeometry width="50" height="50" relative="1" as="geometry">
            <mxPoint x="840" y="-215" as="sourcePoint" />
            <mxPoint x="820" y="10" as="targetPoint" />
            <Array as="points">
              <mxPoint x="770" y="-215" />
            </Array>
          </mxGeometry>
        </mxCell>
        <mxCell id="scR5IvBx8ftGSUGvlspl-12" value="Esport" style="edgeLabel;html=1;align=center;verticalAlign=middle;resizable=0;points=[];rotation=0;imageWidth=24;fontSize=18;labelBackgroundColor=#18141D;" parent="scR5IvBx8ftGSUGvlspl-9" vertex="1" connectable="0">
          <mxGeometry x="-0.26" y="3" relative="1" as="geometry">
            <mxPoint x="28" y="-31" as="offset" />
          </mxGeometry>
        </mxCell>
        <mxCell id="scR5IvBx8ftGSUGvlspl-46" value="home.html" style="rounded=1;whiteSpace=wrap;html=1;fontSize=14;verticalAlign=top;strokeColor=#10739E;strokeWidth=3;" parent="1" vertex="1">
          <mxGeometry x="760" y="10" width="150" height="200" as="geometry" />
        </mxCell>
        <mxCell id="scR5IvBx8ftGSUGvlspl-47" value="" style="endArrow=none;startArrow=classic;html=1;rounded=0;exitX=0.5;exitY=0;exitDx=0;exitDy=0;startFill=1;endFill=0;entryX=0;entryY=0.5;entryDx=0;entryDy=0;" parent="1" source="7-OgPnaC4kNo0Ul6jZoN-6" target="vBWL9bzFLguuBPXEn6Cb-8" edge="1">
          <mxGeometry width="50" height="50" relative="1" as="geometry">
            <mxPoint x="480" y="260" as="sourcePoint" />
            <mxPoint x="700" y="190" as="targetPoint" />
          </mxGeometry>
        </mxCell>
        <mxCell id="vBWL9bzFLguuBPXEn6Cb-10" value="See More (Gallery)" style="edgeLabel;html=1;align=center;verticalAlign=middle;resizable=0;points=[];rotation=-55;" parent="scR5IvBx8ftGSUGvlspl-47" vertex="1" connectable="0">
          <mxGeometry x="0.2062" y="1" relative="1" as="geometry">
            <mxPoint x="-10" y="14" as="offset" />
          </mxGeometry>
        </mxCell>
        <mxCell id="scR5IvBx8ftGSUGvlspl-63" value="Exit&lt;br&gt;(Redirect)" style="ellipse;html=1;shape=startState;fillColor=#FFFFFF;strokeColor=#ff0000;rounded=1;shadow=0;comic=0;labelBackgroundColor=none;fontFamily=Verdana;fontSize=12;fontColor=#000000;align=center;direction=south;textShadow=1;" parent="1" vertex="1">
          <mxGeometry x="-1250" y="80" width="150" height="150" as="geometry" />
        </mxCell>
        <mxCell id="scR5IvBx8ftGSUGvlspl-68" value="redirecthandler.php" style="rounded=1;whiteSpace=wrap;html=1;fontSize=13;align=left;verticalAlign=top;spacing=15;fillColor=none;fontColor=#ffffff;strokeColor=#6F0000;strokeWidth=4;" parent="1" vertex="1">
          <mxGeometry x="-290" y="42.5" width="250" height="240" as="geometry" />
        </mxCell>
        <mxCell id="scR5IvBx8ftGSUGvlspl-69" value="" style="endArrow=classic;html=1;rounded=0;exitX=0;exitY=0.5;exitDx=0;exitDy=0;entryX=0.5;entryY=0;entryDx=0;entryDy=0;fillColor=#a20025;strokeColor=#6F0000;strokeWidth=3;" parent="1" source="scR5IvBx8ftGSUGvlspl-68" target="scR5IvBx8ftGSUGvlspl-63" edge="1">
          <mxGeometry width="50" height="50" relative="1" as="geometry">
            <mxPoint x="-1000" y="160" as="sourcePoint" />
            <mxPoint x="-1310" y="190" as="targetPoint" />
          </mxGeometry>
        </mxCell>
        <mxCell id="jzYoZOkXzFZlrtvSk8LI-4" value="Redirect" style="edgeLabel;html=1;align=center;verticalAlign=middle;resizable=0;points=[];fontSize=20;fontColor=#FF0000;labelBackgroundColor=#000000;" parent="scR5IvBx8ftGSUGvlspl-69" vertex="1" connectable="0">
          <mxGeometry x="0.1311" y="-1" relative="1" as="geometry">
            <mxPoint x="179" y="-1" as="offset" />
          </mxGeometry>
        </mxCell>
        <mxCell id="jzYoZOkXzFZlrtvSk8LI-1" value="Top Menu" style="rhombus;whiteSpace=wrap;html=1;" parent="1" vertex="1">
          <mxGeometry x="855" y="-250" width="200" height="70" as="geometry" />
        </mxCell>
        <mxCell id="jzYoZOkXzFZlrtvSk8LI-2" value="" style="endArrow=classic;html=1;rounded=0;entryX=0.5;entryY=0;entryDx=0;entryDy=0;exitX=0.5;exitY=1;exitDx=0;exitDy=0;" parent="1" source="382b91b5511bd0f7-6" target="jzYoZOkXzFZlrtvSk8LI-1" edge="1">
          <mxGeometry width="50" height="50" relative="1" as="geometry">
            <mxPoint x="-65" y="-205" as="sourcePoint" />
            <mxPoint x="-540" y="70" as="targetPoint" />
            <Array as="points" />
          </mxGeometry>
        </mxCell>
        <mxCell id="jzYoZOkXzFZlrtvSk8LI-6" value="urbex.pzrteam.hu" style="shape=umlFrame;whiteSpace=wrap;html=1;rounded=1;shadow=0;comic=0;labelBackgroundColor=none;strokeWidth=3;fontFamily=Verdana;fontSize=12;align=center;width=130;height=30;fillColor=#EA6B66;strokeColor=#EA6B66;fillStyle=solid;gradientColor=none;swimlaneFillColor=default;fontColor=#000000;" parent="1" vertex="1">
          <mxGeometry x="1430" y="1290" width="885" height="630" as="geometry" />
        </mxCell>
        <mxCell id="jzYoZOkXzFZlrtvSk8LI-7" value="" style="endArrow=classic;html=1;rounded=0;exitX=1;exitY=0.5;exitDx=0;exitDy=0;entryX=0.5;entryY=0;entryDx=0;entryDy=0;" parent="1" source="jzYoZOkXzFZlrtvSk8LI-1" target="jzYoZOkXzFZlrtvSk8LI-9" edge="1">
          <mxGeometry width="50" height="50" relative="1" as="geometry">
            <mxPoint x="-492" y="-245" as="sourcePoint" />
            <mxPoint x="-667" y="20" as="targetPoint" />
            <Array as="points">
              <mxPoint x="1920" y="-215" />
            </Array>
          </mxGeometry>
        </mxCell>
        <mxCell id="jzYoZOkXzFZlrtvSk8LI-8" value="Urbex" style="edgeLabel;html=1;align=center;verticalAlign=middle;resizable=0;points=[];rotation=0;imageWidth=24;fontSize=25;labelBackgroundColor=#000000;" parent="jzYoZOkXzFZlrtvSk8LI-7" vertex="1" connectable="0">
          <mxGeometry x="-0.26" y="3" relative="1" as="geometry">
            <mxPoint x="4" y="-23" as="offset" />
          </mxGeometry>
        </mxCell>
        <mxCell id="jzYoZOkXzFZlrtvSk8LI-9" value="index.php" style="rounded=1;whiteSpace=wrap;html=1;fontSize=14;strokeColor=#10739E;strokeWidth=3;" parent="1" vertex="1">
          <mxGeometry x="1720" y="1380" width="420" height="70" as="geometry" />
        </mxCell>
        <mxCell id="jzYoZOkXzFZlrtvSk8LI-10" value="" style="endArrow=classic;html=1;rounded=0;startArrow=none;startFill=0;exitX=1;exitY=0.5;exitDx=0;exitDy=0;entryX=1;entryY=0.5;entryDx=0;entryDy=0;" parent="1" source="vBWL9bzFLguuBPXEn6Cb-2" target="382b91b5511bd0f7-6" edge="1">
          <mxGeometry width="50" height="50" relative="1" as="geometry">
            <mxPoint x="480" y="330" as="sourcePoint" />
            <mxPoint x="170" y="530" as="targetPoint" />
            <Array as="points">
              <mxPoint x="1130" y="60" />
              <mxPoint x="1130" y="-350" />
            </Array>
          </mxGeometry>
        </mxCell>
        <mxCell id="jzYoZOkXzFZlrtvSk8LI-11" value="&lt;font style=&quot;font-size: 13px;&quot;&gt;Home&lt;/font&gt;" style="edgeLabel;html=1;align=center;verticalAlign=middle;resizable=0;points=[];fontSize=13;" parent="jzYoZOkXzFZlrtvSk8LI-10" vertex="1" connectable="0">
          <mxGeometry x="0.008" y="1" relative="1" as="geometry">
            <mxPoint x="-4" y="-1" as="offset" />
          </mxGeometry>
        </mxCell>
        <mxCell id="7-OgPnaC4kNo0Ul6jZoN-6" value="gallery.html" style="rounded=1;whiteSpace=wrap;html=1;strokeColor=#10739E;strokeWidth=3;" parent="1" vertex="1">
          <mxGeometry x="600" y="320" width="120" height="40" as="geometry" />
        </mxCell>
        <mxCell id="vBWL9bzFLguuBPXEn6Cb-1" value="&lt;font style=&quot;font-size: 12px;&quot;&gt;Top Menu&lt;/font&gt;" style="swimlane;fontStyle=0;childLayout=stackLayout;horizontal=1;startSize=20;horizontalStack=0;resizeParent=1;resizeParentMax=0;resizeLast=0;collapsible=1;marginBottom=0;whiteSpace=wrap;html=1;strokeColor=#10739E;" parent="1" vertex="1">
          <mxGeometry x="760" y="55" width="150" height="155" as="geometry" />
        </mxCell>
        <mxCell id="vBWL9bzFLguuBPXEn6Cb-30" value="Language switch (HU/EN)" style="text;strokeColor=#10739E;fillColor=none;align=left;verticalAlign=middle;spacingLeft=4;spacingRight=4;overflow=hidden;points=[[0,0.5],[1,0.5]];portConstraint=eastwest;rotatable=0;whiteSpace=wrap;html=1;" parent="vBWL9bzFLguuBPXEn6Cb-1" vertex="1">
          <mxGeometry y="20" width="150" height="20" as="geometry" />
        </mxCell>
        <mxCell id="vBWL9bzFLguuBPXEn6Cb-2" value="Főoldal" style="text;strokeColor=#10739E;fillColor=none;align=left;verticalAlign=middle;spacingLeft=4;spacingRight=4;overflow=hidden;points=[[0,0.5],[1,0.5]];portConstraint=eastwest;rotatable=0;whiteSpace=wrap;html=1;" parent="vBWL9bzFLguuBPXEn6Cb-1" vertex="1">
          <mxGeometry y="40" width="150" height="20" as="geometry" />
        </mxCell>
        <mxCell id="vBWL9bzFLguuBPXEn6Cb-5" value="Rólunk" style="text;strokeColor=#10739E;fillColor=none;align=left;verticalAlign=middle;spacingLeft=4;spacingRight=4;overflow=hidden;points=[[0,0.5],[1,0.5]];portConstraint=eastwest;rotatable=0;whiteSpace=wrap;html=1;" parent="vBWL9bzFLguuBPXEn6Cb-1" vertex="1">
          <mxGeometry y="60" width="150" height="19" as="geometry" />
        </mxCell>
        <mxCell id="vBWL9bzFLguuBPXEn6Cb-6" value="Tagok" style="text;strokeColor=#10739E;fillColor=none;align=left;verticalAlign=middle;spacingLeft=4;spacingRight=4;overflow=hidden;points=[[0,0.5],[1,0.5]];portConstraint=eastwest;rotatable=0;whiteSpace=wrap;html=1;" parent="vBWL9bzFLguuBPXEn6Cb-1" vertex="1">
          <mxGeometry y="79" width="150" height="19" as="geometry" />
        </mxCell>
        <mxCell id="vBWL9bzFLguuBPXEn6Cb-4" value="Partnerek" style="text;strokeColor=#10739E;fillColor=none;align=left;verticalAlign=middle;spacingLeft=4;spacingRight=4;overflow=hidden;points=[[0,0.5],[1,0.5]];portConstraint=eastwest;rotatable=0;whiteSpace=wrap;html=1;" parent="vBWL9bzFLguuBPXEn6Cb-1" vertex="1">
          <mxGeometry y="98" width="150" height="19" as="geometry" />
        </mxCell>
        <mxCell id="vBWL9bzFLguuBPXEn6Cb-8" value="Média" style="text;strokeColor=#10739E;fillColor=none;align=left;verticalAlign=middle;spacingLeft=4;spacingRight=4;overflow=hidden;points=[[0,0.5],[1,0.5]];portConstraint=eastwest;rotatable=0;whiteSpace=wrap;html=1;" parent="vBWL9bzFLguuBPXEn6Cb-1" vertex="1">
          <mxGeometry y="117" width="150" height="19" as="geometry" />
        </mxCell>
        <mxCell id="vBWL9bzFLguuBPXEn6Cb-7" value="Kapcsolat" style="text;strokeColor=#10739E;fillColor=none;align=left;verticalAlign=middle;spacingLeft=4;spacingRight=4;overflow=hidden;points=[[0,0.5],[1,0.5]];portConstraint=eastwest;rotatable=0;whiteSpace=wrap;html=1;" parent="vBWL9bzFLguuBPXEn6Cb-1" vertex="1">
          <mxGeometry y="136" width="150" height="19" as="geometry" />
        </mxCell>
        <mxCell id="vBWL9bzFLguuBPXEn6Cb-11" value="" style="endArrow=classic;html=1;rounded=0;exitX=0.5;exitY=1;exitDx=0;exitDy=0;entryX=1;entryY=0.5;entryDx=0;entryDy=0;" parent="1" source="7-OgPnaC4kNo0Ul6jZoN-6" target="vBWL9bzFLguuBPXEn6Cb-2" edge="1">
          <mxGeometry width="50" height="50" relative="1" as="geometry">
            <mxPoint x="1010" y="330" as="sourcePoint" />
            <mxPoint x="1060" y="280" as="targetPoint" />
            <Array as="points">
              <mxPoint x="660" y="500" />
              <mxPoint x="1170" y="500" />
              <mxPoint x="1170" y="110" />
            </Array>
          </mxGeometry>
        </mxCell>
        <mxCell id="vBWL9bzFLguuBPXEn6Cb-12" value="Főoldal" style="edgeLabel;html=1;align=center;verticalAlign=middle;resizable=0;points=[];fontSize=14;" parent="vBWL9bzFLguuBPXEn6Cb-11" vertex="1" connectable="0">
          <mxGeometry x="-0.5883" relative="1" as="geometry">
            <mxPoint x="352" as="offset" />
          </mxGeometry>
        </mxCell>
        <mxCell id="vBWL9bzFLguuBPXEn6Cb-13" value="martin.html" style="rounded=1;whiteSpace=wrap;html=1;strokeColor=#10739E;strokeWidth=3;" parent="1" vertex="1">
          <mxGeometry x="1045" y="320" width="120" height="40" as="geometry" />
        </mxCell>
        <mxCell id="vBWL9bzFLguuBPXEn6Cb-14" value="mark.html" style="rounded=1;whiteSpace=wrap;html=1;strokeColor=#10739E;strokeWidth=3;" parent="1" vertex="1">
          <mxGeometry x="910" y="320" width="120" height="40" as="geometry" />
        </mxCell>
        <mxCell id="vBWL9bzFLguuBPXEn6Cb-15" value="" style="endArrow=classic;html=1;rounded=0;exitX=1;exitY=0.5;exitDx=0;exitDy=0;entryX=0.5;entryY=0;entryDx=0;entryDy=0;" parent="1" source="vBWL9bzFLguuBPXEn6Cb-6" target="vBWL9bzFLguuBPXEn6Cb-13" edge="1">
          <mxGeometry width="50" height="50" relative="1" as="geometry">
            <mxPoint x="890" y="320" as="sourcePoint" />
            <mxPoint x="940" y="270" as="targetPoint" />
          </mxGeometry>
        </mxCell>
        <mxCell id="vBWL9bzFLguuBPXEn6Cb-19" value="Achievements (Martin)" style="edgeLabel;html=1;align=center;verticalAlign=middle;resizable=0;points=[];rotation=44;" parent="vBWL9bzFLguuBPXEn6Cb-15" vertex="1" connectable="0">
          <mxGeometry x="-0.2595" y="5" relative="1" as="geometry">
            <mxPoint x="33" y="35" as="offset" />
          </mxGeometry>
        </mxCell>
        <mxCell id="vBWL9bzFLguuBPXEn6Cb-16" value="" style="endArrow=classic;html=1;rounded=0;entryX=0.5;entryY=0;entryDx=0;entryDy=0;exitX=1;exitY=0.5;exitDx=0;exitDy=0;" parent="1" source="vBWL9bzFLguuBPXEn6Cb-6" target="vBWL9bzFLguuBPXEn6Cb-14" edge="1">
          <mxGeometry width="50" height="50" relative="1" as="geometry">
            <mxPoint x="890" y="320" as="sourcePoint" />
            <mxPoint x="940" y="270" as="targetPoint" />
            <Array as="points">
              <mxPoint x="950" y="240" />
            </Array>
          </mxGeometry>
        </mxCell>
        <mxCell id="vBWL9bzFLguuBPXEn6Cb-21" value="Achievements (Mark)" style="edgeLabel;html=1;align=center;verticalAlign=middle;resizable=0;points=[];rotation=71;" parent="vBWL9bzFLguuBPXEn6Cb-16" vertex="1" connectable="0">
          <mxGeometry x="-0.1319" y="-1" relative="1" as="geometry">
            <mxPoint x="10" y="28" as="offset" />
          </mxGeometry>
        </mxCell>
        <mxCell id="vBWL9bzFLguuBPXEn6Cb-17" value="" style="endArrow=none;html=1;rounded=0;entryX=0.5;entryY=1;entryDx=0;entryDy=0;" parent="1" target="vBWL9bzFLguuBPXEn6Cb-14" edge="1">
          <mxGeometry width="50" height="50" relative="1" as="geometry">
            <mxPoint x="880" y="500" as="sourcePoint" />
            <mxPoint x="940" y="270" as="targetPoint" />
            <Array as="points">
              <mxPoint x="970" y="500" />
            </Array>
          </mxGeometry>
        </mxCell>
        <mxCell id="vBWL9bzFLguuBPXEn6Cb-18" value="" style="endArrow=none;html=1;rounded=0;entryX=0.5;entryY=1;entryDx=0;entryDy=0;" parent="1" target="vBWL9bzFLguuBPXEn6Cb-13" edge="1">
          <mxGeometry width="50" height="50" relative="1" as="geometry">
            <mxPoint x="1105" y="500" as="sourcePoint" />
            <mxPoint x="940" y="270" as="targetPoint" />
          </mxGeometry>
        </mxCell>
        <mxCell id="vBWL9bzFLguuBPXEn6Cb-22" value="/en/home.html" style="rounded=1;whiteSpace=wrap;html=1;fontSize=14;verticalAlign=top;strokeColor=#10739E;strokeWidth=3;" parent="1" vertex="1">
          <mxGeometry x="210" y="450" width="130" height="230" as="geometry" />
        </mxCell>
        <mxCell id="vBWL9bzFLguuBPXEn6Cb-23" value="&lt;font style=&quot;font-size: 12px;&quot;&gt;Top Menu&lt;/font&gt;" style="swimlane;fontStyle=0;childLayout=stackLayout;horizontal=1;startSize=20;horizontalStack=0;resizeParent=1;resizeParentMax=0;resizeLast=0;collapsible=1;marginBottom=0;whiteSpace=wrap;html=1;strokeColor=#10739E;" parent="1" vertex="1">
          <mxGeometry x="210" y="517.5" width="130" height="155" as="geometry" />
        </mxCell>
        <mxCell id="hHSkvbAOpgz8xo1eGqSs-8" value="Language switch (HU/EN)" style="text;strokeColor=#10739E;fillColor=none;align=left;verticalAlign=middle;spacingLeft=4;spacingRight=4;overflow=hidden;points=[[0,0.5],[1,0.5]];portConstraint=eastwest;rotatable=0;whiteSpace=wrap;html=1;" vertex="1" parent="vBWL9bzFLguuBPXEn6Cb-23">
          <mxGeometry y="20" width="130" height="20" as="geometry" />
        </mxCell>
        <mxCell id="vBWL9bzFLguuBPXEn6Cb-24" value="Home" style="text;strokeColor=#10739E;fillColor=none;align=left;verticalAlign=middle;spacingLeft=4;spacingRight=4;overflow=hidden;points=[[0,0.5],[1,0.5]];portConstraint=eastwest;rotatable=0;whiteSpace=wrap;html=1;" parent="vBWL9bzFLguuBPXEn6Cb-23" vertex="1">
          <mxGeometry y="40" width="130" height="20" as="geometry" />
        </mxCell>
        <mxCell id="vBWL9bzFLguuBPXEn6Cb-25" value="About us" style="text;strokeColor=#10739E;fillColor=none;align=left;verticalAlign=middle;spacingLeft=4;spacingRight=4;overflow=hidden;points=[[0,0.5],[1,0.5]];portConstraint=eastwest;rotatable=0;whiteSpace=wrap;html=1;" parent="vBWL9bzFLguuBPXEn6Cb-23" vertex="1">
          <mxGeometry y="60" width="130" height="19" as="geometry" />
        </mxCell>
        <mxCell id="vBWL9bzFLguuBPXEn6Cb-26" value="Members" style="text;strokeColor=#10739E;fillColor=none;align=left;verticalAlign=middle;spacingLeft=4;spacingRight=4;overflow=hidden;points=[[0,0.5],[1,0.5]];portConstraint=eastwest;rotatable=0;whiteSpace=wrap;html=1;" parent="vBWL9bzFLguuBPXEn6Cb-23" vertex="1">
          <mxGeometry y="79" width="130" height="19" as="geometry" />
        </mxCell>
        <mxCell id="vBWL9bzFLguuBPXEn6Cb-27" value="Partners" style="text;strokeColor=#10739E;fillColor=none;align=left;verticalAlign=middle;spacingLeft=4;spacingRight=4;overflow=hidden;points=[[0,0.5],[1,0.5]];portConstraint=eastwest;rotatable=0;whiteSpace=wrap;html=1;" parent="vBWL9bzFLguuBPXEn6Cb-23" vertex="1">
          <mxGeometry y="98" width="130" height="19" as="geometry" />
        </mxCell>
        <mxCell id="vBWL9bzFLguuBPXEn6Cb-28" value="Media" style="text;strokeColor=#10739E;fillColor=none;align=left;verticalAlign=middle;spacingLeft=4;spacingRight=4;overflow=hidden;points=[[0,0.5],[1,0.5]];portConstraint=eastwest;rotatable=0;whiteSpace=wrap;html=1;" parent="vBWL9bzFLguuBPXEn6Cb-23" vertex="1">
          <mxGeometry y="117" width="130" height="19" as="geometry" />
        </mxCell>
        <mxCell id="vBWL9bzFLguuBPXEn6Cb-29" value="Contacts" style="text;strokeColor=#10739E;fillColor=none;align=left;verticalAlign=middle;spacingLeft=4;spacingRight=4;overflow=hidden;points=[[0,0.5],[1,0.5]];portConstraint=eastwest;rotatable=0;whiteSpace=wrap;html=1;" parent="vBWL9bzFLguuBPXEn6Cb-23" vertex="1">
          <mxGeometry y="136" width="130" height="19" as="geometry" />
        </mxCell>
        <mxCell id="vBWL9bzFLguuBPXEn6Cb-32" value="/en/gallery.html" style="rounded=1;whiteSpace=wrap;html=1;strokeColor=#10739E;strokeWidth=3;" parent="1" vertex="1">
          <mxGeometry x="380" y="765" width="120" height="40" as="geometry" />
        </mxCell>
        <mxCell id="vBWL9bzFLguuBPXEn6Cb-33" value="" style="endArrow=classic;html=1;rounded=0;exitX=0.5;exitY=1;exitDx=0;exitDy=0;entryX=1;entryY=0.5;entryDx=0;entryDy=0;" parent="1" source="vBWL9bzFLguuBPXEn6Cb-32" target="vBWL9bzFLguuBPXEn6Cb-24" edge="1">
          <mxGeometry width="50" height="50" relative="1" as="geometry">
            <mxPoint x="580" y="745" as="sourcePoint" />
            <mxPoint x="480" y="520" as="targetPoint" />
            <Array as="points">
              <mxPoint x="440" y="916" />
              <mxPoint x="530" y="915.5" />
              <mxPoint x="530" y="592.5" />
            </Array>
          </mxGeometry>
        </mxCell>
        <mxCell id="vBWL9bzFLguuBPXEn6Cb-34" value="Home" style="edgeLabel;html=1;align=center;verticalAlign=middle;resizable=0;points=[];fontSize=14;" parent="vBWL9bzFLguuBPXEn6Cb-33" vertex="1" connectable="0">
          <mxGeometry x="-0.5883" relative="1" as="geometry">
            <mxPoint x="22" y="-2" as="offset" />
          </mxGeometry>
        </mxCell>
        <mxCell id="vBWL9bzFLguuBPXEn6Cb-35" value="/en/martin.html" style="rounded=1;whiteSpace=wrap;html=1;strokeColor=#10739E;strokeWidth=3;" parent="1" vertex="1">
          <mxGeometry x="190" y="765" width="120" height="40" as="geometry" />
        </mxCell>
        <mxCell id="vBWL9bzFLguuBPXEn6Cb-36" value="/en/mark.html" style="rounded=1;whiteSpace=wrap;html=1;strokeColor=#10739E;strokeWidth=3;" parent="1" vertex="1">
          <mxGeometry x="10" y="765" width="120" height="40" as="geometry" />
        </mxCell>
        <mxCell id="vBWL9bzFLguuBPXEn6Cb-37" value="" style="endArrow=none;html=1;rounded=0;entryX=0.5;entryY=1;entryDx=0;entryDy=0;" parent="1" target="vBWL9bzFLguuBPXEn6Cb-36" edge="1">
          <mxGeometry width="50" height="50" relative="1" as="geometry">
            <mxPoint x="440" y="915" as="sourcePoint" />
            <mxPoint x="510" y="685" as="targetPoint" />
            <Array as="points">
              <mxPoint x="250" y="915" />
              <mxPoint x="70" y="915" />
            </Array>
          </mxGeometry>
        </mxCell>
        <mxCell id="vBWL9bzFLguuBPXEn6Cb-38" value="" style="endArrow=none;html=1;rounded=0;entryX=0.5;entryY=1;entryDx=0;entryDy=0;" parent="1" target="vBWL9bzFLguuBPXEn6Cb-35" edge="1">
          <mxGeometry width="50" height="50" relative="1" as="geometry">
            <mxPoint x="250" y="915" as="sourcePoint" />
            <mxPoint x="510" y="685" as="targetPoint" />
          </mxGeometry>
        </mxCell>
        <mxCell id="vBWL9bzFLguuBPXEn6Cb-61" value="" style="endArrow=classic;html=1;rounded=0;exitX=1;exitY=0.5;exitDx=0;exitDy=0;entryX=0.5;entryY=0;entryDx=0;entryDy=0;" parent="1" source="vBWL9bzFLguuBPXEn6Cb-28" target="vBWL9bzFLguuBPXEn6Cb-35" edge="1">
          <mxGeometry width="50" height="50" relative="1" as="geometry">
            <mxPoint x="350" y="631.5" as="sourcePoint" />
            <mxPoint x="260" y="772.5" as="targetPoint" />
            <Array as="points">
              <mxPoint x="410" y="710" />
            </Array>
          </mxGeometry>
        </mxCell>
        <mxCell id="vBWL9bzFLguuBPXEn6Cb-62" value="Achievements (Martin)" style="edgeLabel;html=1;align=center;verticalAlign=middle;resizable=0;points=[];rotation=-19;" parent="vBWL9bzFLguuBPXEn6Cb-61" vertex="1" connectable="0">
          <mxGeometry x="-0.2595" y="5" relative="1" as="geometry">
            <mxPoint x="-60" y="15" as="offset" />
          </mxGeometry>
        </mxCell>
        <mxCell id="vBWL9bzFLguuBPXEn6Cb-63" value="" style="endArrow=classic;html=1;rounded=0;entryX=0.5;entryY=0;entryDx=0;entryDy=0;exitX=1;exitY=0.5;exitDx=0;exitDy=0;" parent="1" source="vBWL9bzFLguuBPXEn6Cb-28" target="vBWL9bzFLguuBPXEn6Cb-36" edge="1">
          <mxGeometry width="50" height="50" relative="1" as="geometry">
            <mxPoint x="115" y="642.5" as="sourcePoint" />
            <mxPoint x="-80" y="782.5" as="targetPoint" />
            <Array as="points">
              <mxPoint x="360" y="692.5" />
            </Array>
          </mxGeometry>
        </mxCell>
        <mxCell id="vBWL9bzFLguuBPXEn6Cb-64" value="Achievements (Mark)" style="edgeLabel;html=1;align=center;verticalAlign=middle;resizable=0;points=[];rotation=-15;" parent="vBWL9bzFLguuBPXEn6Cb-63" vertex="1" connectable="0">
          <mxGeometry x="-0.1319" y="-1" relative="1" as="geometry">
            <mxPoint x="-43" y="9" as="offset" />
          </mxGeometry>
        </mxCell>
        <mxCell id="vBWL9bzFLguuBPXEn6Cb-66" value="&lt;p style=&quot;margin:0px;margin-top:6px;text-align:center;&quot;&gt;&lt;b&gt;URL Parameters&lt;/b&gt;&lt;/p&gt;&lt;hr size=&quot;1&quot; style=&quot;border-style:solid;&quot;&gt;&lt;p style=&quot;margin:0px;margin-left:8px;&quot;&gt;+ src: string&lt;br&gt;&lt;br&gt;+ dst: string -&amp;gt; filter for allowed domains&lt;/p&gt;" style="align=left;overflow=fill;html=1;dropTarget=0;whiteSpace=wrap;fillColor=none;strokeColor=#FF0000;" parent="1" vertex="1">
          <mxGeometry x="-280" y="130" width="230" height="120" as="geometry" />
        </mxCell>
        <mxCell id="vBWL9bzFLguuBPXEn6Cb-67" value="" style="shape=component;jettyWidth=8;jettyHeight=4;" parent="vBWL9bzFLguuBPXEn6Cb-66" vertex="1">
          <mxGeometry x="1" width="20" height="20" relative="1" as="geometry">
            <mxPoint x="-24" y="4" as="offset" />
          </mxGeometry>
        </mxCell>
        <mxCell id="vBWL9bzFLguuBPXEn6Cb-69" value="" style="endArrow=classic;html=1;rounded=0;entryX=1;entryY=0.5;entryDx=0;entryDy=0;exitX=0;exitY=0.5;exitDx=0;exitDy=0;" parent="1" source="vBWL9bzFLguuBPXEn6Cb-4" target="scR5IvBx8ftGSUGvlspl-68" edge="1">
          <mxGeometry width="50" height="50" relative="1" as="geometry">
            <mxPoint x="670" y="230" as="sourcePoint" />
            <mxPoint x="720" y="180" as="targetPoint" />
            <Array as="points">
              <mxPoint x="490" y="163" />
            </Array>
          </mxGeometry>
        </mxCell>
        <mxCell id="vBWL9bzFLguuBPXEn6Cb-70" value="Sponsor logo" style="edgeLabel;html=1;align=center;verticalAlign=middle;resizable=0;points=[];rotation=0;fontSize=15;" parent="vBWL9bzFLguuBPXEn6Cb-69" vertex="1" connectable="0">
          <mxGeometry x="0.2057" y="3" relative="1" as="geometry">
            <mxPoint x="36" y="-1" as="offset" />
          </mxGeometry>
        </mxCell>
        <mxCell id="vBWL9bzFLguuBPXEn6Cb-71" value="" style="endArrow=classic;html=1;rounded=0;entryX=1;entryY=0.5;entryDx=0;entryDy=0;exitX=0;exitY=0.5;exitDx=0;exitDy=0;startArrow=classic;startFill=1;" parent="1" source="vBWL9bzFLguuBPXEn6Cb-30" target="hHSkvbAOpgz8xo1eGqSs-8" edge="1">
          <mxGeometry width="50" height="50" relative="1" as="geometry">
            <mxPoint x="740" y="440" as="sourcePoint" />
            <mxPoint x="790" y="390" as="targetPoint" />
            <Array as="points" />
          </mxGeometry>
        </mxCell>
        <mxCell id="vBWL9bzFLguuBPXEn6Cb-76" value="Language switch (HU / EN)" style="edgeLabel;html=1;align=center;verticalAlign=middle;resizable=0;points=[];rotation=-48;fontSize=14;" parent="vBWL9bzFLguuBPXEn6Cb-71" vertex="1" connectable="0">
          <mxGeometry x="0.3103" y="-2" relative="1" as="geometry">
            <mxPoint x="36" y="-36" as="offset" />
          </mxGeometry>
        </mxCell>
        <mxCell id="vBWL9bzFLguuBPXEn6Cb-72" value="" style="endArrow=classic;html=1;rounded=0;entryX=1;entryY=0.25;entryDx=0;entryDy=0;exitX=0;exitY=0.5;exitDx=0;exitDy=0;" parent="1" source="vBWL9bzFLguuBPXEn6Cb-2" target="scR5IvBx8ftGSUGvlspl-68" edge="1">
          <mxGeometry width="50" height="50" relative="1" as="geometry">
            <mxPoint x="690" y="410" as="sourcePoint" />
            <mxPoint x="740" y="360" as="targetPoint" />
          </mxGeometry>
        </mxCell>
        <mxCell id="vBWL9bzFLguuBPXEn6Cb-73" value="Discord / Instagram / Tiktok / Twitch / YouTube" style="edgeLabel;html=1;align=center;verticalAlign=middle;resizable=0;points=[];rotation=1;fontSize=14;" parent="vBWL9bzFLguuBPXEn6Cb-72" vertex="1" connectable="0">
          <mxGeometry x="0.4232" y="-1" relative="1" as="geometry">
            <mxPoint x="115" y="2" as="offset" />
          </mxGeometry>
        </mxCell>
        <mxCell id="vBWL9bzFLguuBPXEn6Cb-74" value="" style="endArrow=classic;html=1;rounded=0;entryX=1;entryY=1;entryDx=0;entryDy=0;exitX=0;exitY=0.5;exitDx=0;exitDy=0;" parent="1" source="vBWL9bzFLguuBPXEn6Cb-24" edge="1">
          <mxGeometry width="50" height="50" relative="1" as="geometry">
            <mxPoint x="210" y="530" as="sourcePoint" />
            <mxPoint x="-40" y="265.5" as="targetPoint" />
            <Array as="points">
              <mxPoint x="170" y="530" />
            </Array>
          </mxGeometry>
        </mxCell>
        <mxCell id="vBWL9bzFLguuBPXEn6Cb-75" value="Discord / Instagram / Tiktok / Twitch / YouTube" style="edgeLabel;html=1;align=center;verticalAlign=middle;resizable=0;points=[];rotation=51;fontSize=14;" parent="vBWL9bzFLguuBPXEn6Cb-74" vertex="1" connectable="0">
          <mxGeometry x="0.4232" y="-1" relative="1" as="geometry">
            <mxPoint x="49" y="56" as="offset" />
          </mxGeometry>
        </mxCell>
        <mxCell id="vBWL9bzFLguuBPXEn6Cb-83" value="" style="endArrow=classic;html=1;rounded=0;entryX=0.5;entryY=0;entryDx=0;entryDy=0;exitX=1;exitY=0.5;exitDx=0;exitDy=0;" parent="1" source="vBWL9bzFLguuBPXEn6Cb-28" target="vBWL9bzFLguuBPXEn6Cb-32" edge="1">
          <mxGeometry width="50" height="50" relative="1" as="geometry">
            <mxPoint x="160" y="530" as="sourcePoint" />
            <mxPoint x="210" y="480" as="targetPoint" />
            <Array as="points">
              <mxPoint x="440" y="680" />
            </Array>
          </mxGeometry>
        </mxCell>
        <mxCell id="vBWL9bzFLguuBPXEn6Cb-84" value="See more" style="edgeLabel;html=1;align=center;verticalAlign=middle;resizable=0;points=[];rotation=28;" parent="vBWL9bzFLguuBPXEn6Cb-83" vertex="1" connectable="0">
          <mxGeometry x="-0.3142" y="3" relative="1" as="geometry">
            <mxPoint x="9" y="5" as="offset" />
          </mxGeometry>
        </mxCell>
        <mxCell id="hHSkvbAOpgz8xo1eGqSs-3" value="" style="endArrow=none;html=1;rounded=0;entryX=0;entryY=0.5;entryDx=0;entryDy=0;exitX=1;exitY=0.75;exitDx=0;exitDy=0;endFill=0;startArrow=classic;startFill=1;" edge="1" parent="1" source="scR5IvBx8ftGSUGvlspl-68" target="vBWL9bzFLguuBPXEn6Cb-8">
          <mxGeometry width="50" height="50" relative="1" as="geometry">
            <mxPoint x="-40" y="93" as="sourcePoint" />
            <mxPoint x="760" y="172" as="targetPoint" />
          </mxGeometry>
        </mxCell>
        <mxCell id="hHSkvbAOpgz8xo1eGqSs-4" value="Subscribe / Twitch embedded window" style="edgeLabel;html=1;align=center;verticalAlign=middle;resizable=0;points=[];rotation=-3;fontSize=14;" vertex="1" connectable="0" parent="hHSkvbAOpgz8xo1eGqSs-3">
          <mxGeometry x="-0.0699" relative="1" as="geometry">
            <mxPoint x="-1" as="offset" />
          </mxGeometry>
        </mxCell>
      </root>
    </mxGraphModel>
  </diagram>
</mxfile>
